HIERARCHY
ROOT Bip001_Pelvis
{
  OFFSET 32.8599 95.8771 -27.9544
  CHANNELS 6 Xposition Yposition Zposition Zrotation Xrotation Yrotation
  JOINT Bip001_Spine
  {
    OFFSET 1.4188e-005 10.2191 -0.0116013
    CHANNELS 3 Zrotation Xrotation Yrotation
    JOINT Bip001_L_Thigh
    {
      OFFSET 11.0458 -10.2191 0.0116197
      CHANNELS 3 Zrotation Xrotation Yrotation
      JOINT Bip001_L_Calf
      {
        OFFSET -0.707118 -44.0221 0.360014
        CHANNELS 3 Zrotation Xrotation Yrotation
        JOINT Bip001_L_Foot
        {
          OFFSET -0.651902 -40.5938 -3.56146
          CHANNELS 3 Zrotation Xrotation Yrotation
          JOINT Bip001_L_Toe0
          {
            OFFSET 0.0530839 -10.2181 13.1504
            CHANNELS 3 Zrotation Xrotation Yrotation
            End Site
            {
              OFFSET -1.02532e-005 0 7.55606
            }
          }
        }
      }
    }
    JOINT Bip001_R_Thigh
    {
      OFFSET -11.0458 -10.2191 0.0115893
      CHANNELS 3 Zrotation Xrotation Yrotation
      JOINT Bip001_R_Calf
      {
        OFFSET 0.706994 -44.0221 0.35984
        CHANNELS 3 Zrotation Xrotation Yrotation
        JOINT Bip001_R_Foot
        {
          OFFSET 0.651787 -40.5938 -3.5613
          CHANNELS 3 Zrotation Xrotation Yrotation
          JOINT Bip001_R_Toe0
          {
            OFFSET -0.0531479 -10.2181 13.1504
            CHANNELS 3 Zrotation Xrotation Yrotation
            End Site
            {
              OFFSET -1.02894e-005 0 7.55606
            }
          }
        }
      }
    }
    JOINT Bip001_Spine1
    {
      OFFSET 1.87041e-005 14.5736 1.08638
      CHANNELS 3 Zrotation Xrotation Yrotation
      JOINT Bip001_Spine2
      {
        OFFSET 2.24614e-005 14.5058 -1.69078
        CHANNELS 3 Zrotation Xrotation Yrotation
        JOINT Bip001_Neck
        {
          OFFSET 2.20278e-005 15.3945 -0.489414
          CHANNELS 3 Zrotation Xrotation Yrotation
          JOINT Bip001_L_Clavicle
          {
            OFFSET 6.06036 -0.000579998 0.00836775
            CHANNELS 3 Zrotation Xrotation Yrotation
            JOINT Bip001_L_UpperArm
            {
              OFFSET 11.5509 -0.0600302 0.00193952
              CHANNELS 3 Zrotation Xrotation Yrotation
              JOINT Bip001_L_Forearm
              {
                OFFSET 25.9523 0.0806089 -2.15551
                CHANNELS 3 Zrotation Xrotation Yrotation
                JOINT Bip001_L_Hand
                {
                  OFFSET 32.2475 0.153767 1.63968
                  CHANNELS 3 Zrotation Xrotation Yrotation
                  JOINT Bip001_L_Finger0
                  {
                    OFFSET 6.04639 -2.20976 5.90322
                    CHANNELS 3 Zrotation Xrotation Yrotation
                    End Site
                    {
                      OFFSET 4.22375 -1.43895 0.606486
                    }
                  }
                  JOINT Bip001_L_Finger1
                  {
                    OFFSET 11.0826 -0.704819 -0.198153
                    CHANNELS 3 Zrotation Xrotation Yrotation
                    End Site
                    {
                      OFFSET 6.20027 -0.397518 -0.0787166
                    }
                  }
                }
              }
            }
          }
          JOINT Bip001_R_Clavicle
          {
            OFFSET -6.06036 -0.000563197 0.00835105
            CHANNELS 3 Zrotation Xrotation Yrotation
            JOINT Bip001_R_UpperArm
            {
              OFFSET -11.5509 -0.0599978 0.00190698
              CHANNELS 3 Zrotation Xrotation Yrotation
              JOINT Bip001_R_Forearm
              {
                OFFSET -25.9523 0.0806819 -2.1559
                CHANNELS 3 Zrotation Xrotation Yrotation
                JOINT Bip001_R_Hand
                {
                  OFFSET -32.2476 0.153857 1.63991
                  CHANNELS 3 Zrotation Xrotation Yrotation
                  JOINT Bip001_R_Finger0
                  {
                    OFFSET -6.04642 -2.20975 5.9032
                    CHANNELS 3 Zrotation Xrotation Yrotation
                    End Site
                    {
                      OFFSET -4.22376 -1.43894 0.606473
                    }
                  }
                  JOINT Bip001_R_Finger1
                  {
                    OFFSET -11.0826 -0.70479 -0.198183
                    CHANNELS 3 Zrotation Xrotation Yrotation
                    End Site
                    {
                      OFFSET -6.20028 -0.397501 -0.0787337
                    }
                  }
                }
              }
            }
          }
          JOINT Bip001_Head
          {
            OFFSET 1.09673e-005 11.2744 2.05948
            CHANNELS 3 Zrotation Xrotation Yrotation
            End Site
            {
              OFFSET 2.89576e-005 20.8808 -2.77728e-005
            }
          }
        }
      }
    }
  }
}
MOTION
Frames:	5
Frame Time:	0.04
32.6483 95.9093 -28.472 1.26627 -0.399295 3.56685 -0.285206 2.10347 -0.392727 4.27285 -2.09821 7.71329 -0.506353 4.83203 -13.153 4.8922 -0.77412 -0.218985 -1.35241 -5.23225 2.64293 -3.79736 -3.04318 -3.08153 0.00887185 11.3962 0.220926 -5.70099 -10.3194 1.88773 2.06806 -7.04108 2.12038 -0.557183 4.20881 -0.777221 -0.557862 4.2088 -0.777464 1.45553 -2.32226 -3.0248 -24.169 3.01643 -0.166551 -56.6543 42.1147 4.02705 16.6294 -1.91543 -24.1541 8.36094 1.8444 -3.37627 2.64834e-031 9.54166e-015 -1.59028e-015 3.53113e-031 6.36111e-015 -3.18055e-015 24.0232 11.1903 22.4716 52.7717 -38.0936 15.1996 -5.2887 -0.669132 97.1828 -56.0863 28.4744 39.0005 3.18055e-015 0 1.98785e-015 6.36111e-015 0 6.95746e-015 -0.190833 -10.8761 -2.57497 
32.6734 95.9087 -28.4534 1.30312 -0.384248 3.57995 -0.284793 2.09957 -0.364214 4.21793 -2.03628 7.47773 -0.544317 4.69555 -13.0056 5.06108 -0.583411 -0.23462 -1.27986 -5.32114 2.60772 -3.81796 -3.07327 -3.18779 -0.0534103 11.4711 0.205793 -5.68389 -10.3408 1.93608 2.08872 -7.10826 2.15061 -0.5635 4.19786 -0.718611 -0.563009 4.19786 -0.718562 1.54893 -2.04444 -3.16827 -24.3327 2.77294 -0.402422 -56.6495 42.5533 3.95545 16.3778 -2.00598 -23.6755 8.58957 1.68823 -3.54575 -6.36111e-015 0 1.59028e-015 -3.18055e-015 3.18056e-015 3.18055e-015 23.6731 11.4059 24.1521 53.874 -38.0015 18.6643 -5.27069 -0.378356 98.3631 -59.1866 28.1157 40.8133 -6.36111e-015 2.38542e-015 7.55382e-015 -3.18055e-015 1.59028e-015 4.96962e-015 -0.298565 -11.4034 -2.67729 
32.7117 95.9107 -28.4217 1.32354 -0.394259 3.59415 -0.273941 2.09904 -0.301384 4.1519 -2.01794 7.33992 -0.536447 4.69698 -12.9878 5.09068 -0.566089 -0.23852 -1.32854 -5.30168 2.62016 -3.87994 -3.02205 -3.32933 -0.0636261 11.4439 0.205201 -5.65197 -10.3394 1.97249 2.09316 -7.13382 2.16737 -0.541032 4.19783 -0.588755 -0.53896 4.19782 -0.591071 1.66724 -1.83705 -3.40472 -24.3561 2.54017 -0.488029 -56.8512 43.0379 3.76248 16.5623 -1.05037 -23.2211 9.33909 1.60485 -3.58427 -6.36111e-015 9.54166e-015 -0 -3.18055e-015 6.36111e-015 -1.59028e-015 22.9873 11.5967 25.8339 54.6186 -36.7452 21.5169 -5.43012 -0.0670133 99.2351 -61.1973 27.1173 41.2321 -4.77083e-015 -3.18055e-015 4.77083e-015 -3.18055e-015 -4.77083e-015 2.78299e-015 -0.506067 -11.8233 -2.85991 
32.6781 95.9121 -28.4453 1.1275 -0.247346 3.69787 -0.224169 2.07573 -0.255082 4.38745 -2.35639 7.06752 -0.671845 5.05232 -12.8877 5.24541 -0.663655 -0.235587 -1.31123 -5.30163 2.65683 -3.69865 -3.02109 -3.24577 -0.0335795 11.1516 0.14702 -5.68879 -10.1583 1.77321 2.09738 -7.16045 2.17423 -0.436847 4.15246 -0.502353 -0.440023 4.15245 -0.50188 1.84484 -1.89225 -3.6126 -24.397 2.49401 -0.279028 -57.1071 43.2127 3.73219 16.8707 -0.746393 -23.2549 9.01039 1.75062 -3.48379 -3.18055e-015 6.36111e-015 -3.18055e-015 -6.36111e-015 6.36111e-015 -1.59028e-015 21.8478 11.8238 27.2486 54.7501 -33.5225 24.1533 -5.49278 -0.786089 99.0441 -62.7458 25.2663 42.515 -0 0 3.97569e-016 -3.31043e-032 1.59028e-015 1.19271e-015 -0.71729 -11.8574 -2.98111 
32.629 95.9312 -28.4682 0.874783 -0.0624976 3.68208 -0.159367 2.01964 -0.196164 4.71126 -2.72458 6.92201 -0.776109 5.51943 -12.5932 4.685 -1.25982 -0.186651 -1.49905 -4.95832 2.7731 -3.42589 -2.9991 -2.89265 -0.0389603 10.7301 0.0334492 -5.72392 -9.84778 1.47116 2.09618 -7.13513 2.15437 -0.309591 4.0398 -0.391863 -0.310063 4.03979 -0.389779 1.92391 -1.85955 -3.77977 -24.5609 2.3684 -0.0702956 -56.3518 42.915 3.70341 16.0378 -0.400668 -24.3132 9.55938 1.79464 -3.29469 0 6.36111e-015 -0 1.76556e-031 6.36111e-015 -1.59028e-015 20.8317 12.0207 28.9149 53.6966 -29.1112 26.4976 -5.93904 -2.1691 97.5516 -62.1263 24.0469 43.168 1.59028e-015 -3.18055e-015 1.19271e-015 0 0 -7.95139e-016 -0.778647 -11.894 -3.12482 
